<?xml version="1.0" encoding="iso-8859-1"?>
<!-- Generator: Adobe Illustrator 18.0.0, SVG Export Plug-In . SVG Version: 6.00 Build 0)  -->
<!DOCTYPE svg PUBLIC "-//W3C//DTD SVG 1.1//EN" "http://www.w3.org/Graphics/SVG/1.1/DTD/svg11.dtd">
<svg version="1.1" id="Capa_1" xmlns="http://www.w3.org/2000/svg" xmlns:xlink="http://www.w3.org/1999/xlink" x="0px" y="0px"
	 viewBox="0 0 200.541 200.541" style="enable-background:new 0 0 200.541 200.541;" xml:space="preserve">
<g>
	<g>
		<g>
			<g>
				<g>
					<path style="fill:#FCDD66;" d="M141.804,200.541l-42.877-34.198c-0.931-0.741-1.084-2.098-0.341-3.028
						c0.741-0.931,2.098-1.085,3.028-0.341l36.782,29.335l5.469-48.443l48.444-5.469l-29.336-36.782
						c-0.742-0.931-0.59-2.286,0.342-3.028c0.93-0.743,2.287-0.589,3.027,0.341l34.199,42.878l-52.779,5.958L141.804,200.541z"/>
				</g>
			</g>
		</g>
		<g>
			<g>
				<g>
					<path style="fill:#FCDD66;" d="M35.884,102.426c-0.634,0-1.261-0.277-1.686-0.811L0,58.736l52.778-5.958L58.736,0
						l42.878,34.198c0.931,0.742,1.083,2.099,0.341,3.028c-0.741,0.931-2.097,1.086-3.028,0.341L62.145,8.232l-5.468,48.444
						L8.232,62.145l29.335,36.782c0.743,0.931,0.59,2.287-0.341,3.028C36.83,102.271,36.355,102.426,35.884,102.426z"/>
				</g>
			</g>
		</g>
		<g>
			<g>
				<g>
					<path style="fill:#FCDD66;" d="M8.258,102.427c-0.817,0-1.597-0.467-1.96-1.256c-0.497-1.081-0.024-2.361,1.058-2.858
						l41.802-19.215L31.544,31.544l47.553,17.615L98.312,7.356c0.497-1.08,1.776-1.556,2.858-1.058
						c1.082,0.496,1.556,1.777,1.058,2.857L81.345,54.59L38.846,38.845l15.744,42.501L9.156,102.229
						C8.865,102.363,8.559,102.427,8.258,102.427z"/>
				</g>
			</g>
		</g>
		<g>
			<g>
				<g>
					<path style="fill:#FCDD66;" d="M100.269,194.44c-0.3,0-0.607-0.063-0.898-0.197c-1.082-0.497-1.556-1.777-1.059-2.858
						l20.884-45.433l42.499,15.744l-15.744-42.5l45.434-20.884c1.082-0.498,2.361-0.022,2.857,1.059
						c0.498,1.08,0.023,2.361-1.059,2.857l-41.801,19.215l17.613,47.554l-47.552-17.615l-19.215,41.803
						C101.866,193.975,101.085,194.44,100.269,194.44z"/>
				</g>
			</g>
		</g>
		<g>
			<g>
				<g>
					<path style="fill:#FCDD66;" d="M133.316,180.05l-34.639-38.001c-0.802-0.88-0.739-2.244,0.14-3.045
						c0.881-0.801,2.244-0.738,3.045,0.141l26.597,29.18l-1.927-41.791l41.792,1.927l-29.18-26.597
						c-0.879-0.801-0.942-2.165-0.141-3.045c0.802-0.879,2.164-0.941,3.045-0.141l38.001,34.639l-48.992-2.259L133.316,180.05z"/>
				</g>
			</g>
		</g>
		<g>
			<g>
				<g>
					<path style="fill:#FCDD66;" d="M59.944,102.426c-0.518,0-1.038-0.186-1.452-0.563L20.491,67.225l48.992,2.259l-2.259-48.992
						l34.639,38.001c0.801,0.88,0.738,2.244-0.141,3.046c-0.88,0.802-2.244,0.738-3.045-0.141l-26.597-29.18l1.927,41.79
						l-41.79-1.927l29.18,26.597c0.879,0.802,0.942,2.165,0.141,3.045C61.112,102.189,60.529,102.426,59.944,102.426z"/>
				</g>
			</g>
		</g>
	</g>
	<g>
		<g>
			<g>
				<g>
					<path style="fill:#FDE8A2;" d="M164.656,102.426c-0.471,0-0.945-0.153-1.342-0.471c-0.932-0.741-1.084-2.098-0.342-3.028
						l29.336-36.782l-48.444-5.468l-5.469-48.444l-36.782,29.335c-0.931,0.743-2.289,0.59-3.028-0.341
						c-0.743-0.93-0.59-2.286,0.341-3.028L141.804,0l5.958,52.778l52.779,5.958l-34.199,42.878
						C165.918,102.148,165.291,102.426,164.656,102.426z"/>
				</g>
			</g>
		</g>
		<g>
			<g>
				<g>
					<path style="fill:#FDE8A2;" d="M58.736,200.541l-5.957-52.778L0,141.805l34.198-42.878c0.741-0.93,2.098-1.086,3.028-0.341
						c0.931,0.742,1.084,2.098,0.341,3.028L8.232,138.396l48.445,5.469l5.467,48.443l36.782-29.335
						c0.93-0.743,2.287-0.59,3.028,0.341c0.743,0.931,0.59,2.287-0.341,3.028L58.736,200.541z"/>
				</g>
			</g>
		</g>
		<g>
			<g>
				<g>
					<path style="fill:#FDE8A2;" d="M100.272,194.44c-0.816,0-1.597-0.466-1.96-1.256l-19.215-41.803l-47.554,17.614l17.615-47.553
						L7.357,102.229c-1.082-0.496-1.556-1.777-1.058-2.857c0.497-1.081,1.775-1.557,2.858-1.059l45.433,20.884l-15.745,42.499
						l42.5-15.743l20.883,45.433c0.498,1.081,0.024,2.361-1.058,2.858C100.879,194.377,100.573,194.44,100.272,194.44z"/>
				</g>
			</g>
		</g>
		<g>
			<g>
				<g>
					<path style="fill:#FDE8A2;" d="M192.283,102.427c-0.301,0-0.607-0.064-0.898-0.198l-45.434-20.883l15.744-42.5L119.196,54.59
						L98.312,9.156c-0.497-1.08-0.023-2.361,1.059-2.857c1.084-0.497,2.362-0.022,2.858,1.058l19.215,41.803l47.554-17.614
						l-17.615,47.553l41.801,19.215c1.082,0.497,1.557,1.777,1.059,2.858C193.879,101.96,193.098,102.427,192.283,102.427z"/>
				</g>
			</g>
		</g>
		<g>
			<g>
				<g>
					<path style="fill:#FDE8A2;" d="M140.597,102.426c-0.585,0-1.169-0.236-1.594-0.703c-0.802-0.88-0.738-2.243,0.141-3.045
						l29.18-26.597l-41.792,1.927l1.927-41.79l-26.597,29.18c-0.801,0.879-2.165,0.942-3.045,0.141
						c-0.879-0.802-0.942-2.166-0.14-3.046l34.639-38.001l-2.259,48.992l48.992-2.259l-38.001,34.639
						C141.635,102.24,141.115,102.426,140.597,102.426z"/>
				</g>
			</g>
		</g>
		<g>
			<g>
				<g>
					<path style="fill:#FDE8A2;" d="M67.225,180.05l2.259-48.992l-48.992,2.259l38.001-34.639c0.881-0.801,2.244-0.738,3.045,0.141
						c0.801,0.88,0.738,2.244-0.141,3.045l-29.18,26.597l41.79-1.927l-1.927,41.791l26.597-29.18
						c0.801-0.879,2.165-0.941,3.045-0.141c0.879,0.801,0.942,2.165,0.141,3.045L67.225,180.05z"/>
				</g>
			</g>
		</g>
	</g>
	<g>
		<circle style="fill:#FBD009;" cx="100.271" cy="100.271" r="46.321"/>
	</g>
</g>
<g>
</g>
<g>
</g>
<g>
</g>
<g>
</g>
<g>
</g>
<g>
</g>
<g>
</g>
<g>
</g>
<g>
</g>
<g>
</g>
<g>
</g>
<g>
</g>
<g>
</g>
<g>
</g>
<g>
</g>
</svg>
